<svg xmlns="http://www.w3.org/2000/svg" viewBox="0 0 201.387 201.387"><path fill="currentColor" d="M129.413 24.885C127.389 10.699 115.041 0 100.692 0 91.464 0 82.7 4.453 77.251 11.916c-1.113 1.522-.78 3.657.742 4.77 1.517 1.109 3.657.78 4.768-.744 4.171-5.707 10.873-9.115 17.93-9.115 10.974 0 20.415 8.178 21.963 19.021.244 1.703 1.705 2.932 3.376 2.932.159 0 .323-.012.486-.034 1.866-.267 3.163-1.996 2.897-3.861zM178.712 63.096l-10.24-17.067c-.616-1.029-1.727-1.657-2.927-1.657h-9.813c-1.884 0-3.413 1.529-3.413 3.413s1.529 3.413 3.413 3.413h7.881l6.144 10.24H31.626l6.144-10.24h3.615c1.884 0 3.413-1.529 3.413-3.413s-1.529-3.413-3.413-3.413h-5.547c-1.2 0-2.311.628-2.927 1.657l-10.24 17.067c-.633 1.056-.648 2.369-.043 3.439s1.739 1.732 2.97 1.732h150.187c1.231 0 2.364-.662 2.97-1.732s.59-2.385-.043-3.439z"/><path fill="currentColor" d="M161.698 31.623c-.478-.771-1.241-1.318-2.123-1.524l-46.531-10.883c-.881-.207-1.809-.053-2.579.423-.768.478-1.316 1.241-1.522 2.123l-3.509 15c-.43 1.835.71 3.671 2.546 4.099 1.835.43 3.673-.71 4.101-2.546l2.732-11.675 39.883 9.329-6.267 26.795c-.43 1.835.71 3.671 2.546 4.099.263.061.524.09.782.09 1.55 0 2.953-1.062 3.318-2.635L162.12 34.2c.208-.881.056-1.809-.422-2.577zM102.497 39.692l-3.11-26.305c-.106-.899-.565-1.72-1.277-2.28-.712-.56-1.611-.816-2.514-.71l-57.09 6.748c-1.871.222-3.209 1.918-2.988 3.791l5.185 43.873c.206 1.737 1.679 3.014 3.386 3.014.133 0 .27-.009.406-.024 1.87-.222 3.208-1.918 2.988-3.791l-4.785-40.486 50.311-5.946 2.708 22.915c.222 1.872 1.91 3.202 3.791 2.99 1.871-.22 3.209-1.917 2.989-3.789z"/><path fill="currentColor" d="M129.492 63.556l-6.775-28.174c-.212-.879-.765-1.64-1.536-2.113-.771-.469-1.696-.616-2.581-.406L63.613 46.087c-1.833.44-2.961 2.284-2.521 4.117l3.386 14.082c.44 1.835 2.284 2.964 4.116 2.521 1.833-.44 2.961-2.284 2.521-4.117l-2.589-10.764 48.35-11.626 5.977 24.854c.375 1.565 1.775 2.615 3.316 2.615.265 0 .533-.031.802-.096 1.833-.441 2.961-2.284 2.521-4.117z"/><path fill="currentColor" d="M179.197 64.679c-.094-1.814-1.592-3.238-3.41-3.238H25.6c-1.818 0-3.316 1.423-3.41 3.238l-6.827 133.12c-.048.934.29 1.848.934 2.526.645.677 1.539 1.062 2.475 1.062h163.84c.935 0 1.83-.384 2.478-1.062.643-.678.981-1.591.934-2.526l-6.827-133.12zM22.364 194.56l6.477-126.293h143.701l6.477 126.293H22.364z"/><path fill="currentColor" d="M126.292 75.093c-5.647 0-10.24 4.593-10.24 10.24s4.593 10.24 10.24 10.24 10.24-4.593 10.24-10.24-4.593-10.24-10.24-10.24zm0 13.654c-1.883 0-3.413-1.531-3.413-3.413s1.531-3.413 3.413-3.413 3.413 1.531 3.413 3.413-1.531 3.413-3.413 3.413zM75.092 75.093c-5.647 0-10.24 4.593-10.24 10.24s4.593 10.24 10.24 10.24 10.24-4.593 10.24-10.24-4.593-10.24-10.24-10.24zm0 13.654c-1.882 0-3.413-1.531-3.413-3.413s1.531-3.413 3.413-3.413 3.413 1.531 3.413 3.413-1.531 3.413-3.413 3.413z"/><path fill="currentColor" d="M126.292 85.333h-.263c-1.884 0-3.413 1.529-3.413 3.413 0 .466.092.911.263 1.316v17.457c0 12.233-9.953 22.187-22.187 22.187s-22.187-9.953-22.187-22.187V88.747c0-1.884-1.529-3.413-3.413-3.413s-3.413 1.529-3.413 3.413v18.773c0 15.998 13.015 29.013 29.013 29.013s29.013-13.015 29.013-29.013V88.747c0-1.884-1.529-3.414-3.413-3.414z"/></svg>