<svg xmlns="http://www.w3.org/2000/svg" enable-background="new 0 0 511.5 511.5" viewBox="0 0 511.5 511.5">
    <path fill="currentColor" d="M463.25 24.5h-40V0h-15v24.5h-25V0h-15v24.5h-25V0h-15v24.5h-25V0h-15v24.5h-25V0h-15v24.5h-25V0h-15v24.5h-25V0h-15v24.5h-25V0h-15v24.5h-25V0h-15v24.5h-40v95h16v392h290.606l92.394-92.394V119.5h16v-95zm-112 469.394V415.5h78.394l-78.394 78.394zm81-93.394h-96v96h-257v-377h353v281zm16-296h-385v-65h25V64h15V39.5h25V64h15V39.5h25V64h15V39.5h25V64h15V39.5h25V64h15V39.5h25V64h15V39.5h25V64h15V39.5h25V64h15V39.5h25V64h15V39.5h25v65z"/>
    <path fill="currentColor" d="M119.75 176.5H151.75V191.5H119.75zM119.75 272.5H151.75V287.5H119.75zM119.75 368.5H151.75V383.5H119.75zM119.75 224.5H151.75V239.5H119.75zM119.75 320.5H151.75V335.5H119.75zM119.75 416.5H151.75V431.5H119.75zM175.75 176.5H391.75V191.5H175.75zM175.75 272.5H391.75V287.5H175.75zM175.75 368.5H391.75V383.5H175.75zM175.75 224.5H391.75V239.5H175.75zM175.75 320.5H391.75V335.5H175.75zM175.75 416.5H319.75V431.5H175.75z"/>
</svg>
