<svg xmlns="http://www.w3.org/2000/svg" width="496pt" height="496pt" viewBox="0 0 496 496.05">
    <path fill="currentColor" d="M488.023 112.05c4.418 0 8-3.581 8-8v-64c0-4.417-3.582-8-8-8h-160.23C306.82 10.739 277.91-.86 248.023.05c-29.882-.91-58.793 10.688-79.765 32H8.023c-4.418 0-8 3.583-8 8v64c0 4.419 3.582 8 8 8h24v168h-24c-4.418 0-8 3.583-8 8v40c0 4.419 3.582 8 8 8h8v152c0 4.419 3.582 8 8 8h448c4.418 0 8-3.581 8-8v-152h8c4.418 0 8-3.581 8-8v-40c0-4.417-3.582-8-8-8h-24v-168zm-8-64v48H338.426c7.465-15.128 7.465-32.87 0-48zm-96 232v-80c0-4.417-3.582-8-8-8h-32c-4.418 0-8 3.583-8 8v80h-8v-80c0-4.417-3.582-8-8-8h-32c-4.418 0-8 3.583-8 8v80h-64v-88c0-4.417-3.582-8-8-8h-88c-4.418 0-8 3.583-8 8v88h-32v-168h88.235c20.972 21.31 49.883 32.907 79.765 32 29.887.907 58.797-10.69 79.77-32h88.23v168zm-32 0v-72h16v72zm-56 0v-72h16v72zm-168 0v-16h72v16zm0-48h72v16h-72zm72-16h-72v-16h72zm48-200c30.184 0 56.497 11.766 70.122 29.079.148.226.308.441.48.648 5.96 7.473 9.27 16.715 9.398 26.274-.128 9.558-3.437 18.8-9.398 26.27-.191.19-.312.44-.488.648-13.617 17.312-39.93 29.082-70.114 29.082-30.183 0-56.496-11.77-70.109-29.082-.176-.207-.297-.457-.488-.649-5.965-7.468-9.27-16.71-9.403-26.27.133-9.558 3.438-18.8 9.403-26.273.172-.207.332-.422.48-.648 13.621-17.313 39.934-29.078 70.117-29.078zm-232 32h141.602c-7.465 15.13-7.465 32.872 0 48H16.023zm32 64h16v168h-16zm376 368h-352v-96h352zm40 0h-24v-104c0-4.417-3.582-8-8-8h-368c-4.418 0-8 3.583-8 8v104h-24v-144h432zm16-160h-464v-24h464zm-32-40h-16v-168h16zm0 0"/>
    <path fill="currentColor" d="M248.023 112.05c22.094 0 40-17.91 40-40 0-22.093-17.906-40-40-40-22.09 0-40 17.907-40 40 .028 22.079 17.922 39.973 40 40zm0-64c13.258 0 24 10.743 24 24 0 13.255-10.742 24-24 24-13.253 0-24-10.745-24-24 0-13.257 10.747-24 24-24zm0 0M312.023 472.05h96c4.418 0 8-3.581 8-8s-3.582-8-8-8h-96c-4.418 0-8 3.583-8 8s3.582 8 8 8zm0 0M280.023 472.05h8c4.418 0 8-3.581 8-8s-3.582-8-8-8h-8c-4.418 0-8 3.583-8 8s3.582 8 8 8zm0 0"/>
</svg>
