<svg xmlns="http://www.w3.org/2000/svg" width="512" height="512" viewBox="0 0 64 64">
    <path fill="currentColor" d="M2.496 55.002c-.553 0-1-.447-1-1 0-4.963 4.037-9 9-9 .553 0 1 .447 1 1s-.447 1-1 1c-3.859 0-7 3.141-7 7 0 .553-.447 1-1 1zM44.496 55.002c-.553 0-1-.447-1-1 0-3.859-3.141-7-7-7-.553 0-1-.447-1-1s.447-1 1-1c4.963 0 9 4.037 9 9 0 .553-.447 1-1 1z"/>
    <path fill="currentColor" d="M16.496 47.002h-6c-.553 0-1-.447-1-1s.447-1 1-1h6c.553 0 1 .447 1 1s-.447 1-1 1zM36.496 47.002l-6-.002c-.553 0-1-.448-1-1 0-.553.448-1 1-1l6 .002c.553 0 1 .448 1 1 0 .553-.448 1-1 1zM2.498 61.998c-.552 0-1-.447-1-1l-.002-6.996c0-.552.447-1 1-1 .552 0 1 .447 1 1l.002 6.996c0 .552-.447 1-1 1zM44.496 61.998c-.553 0-1-.447-1-1v-6.996c0-.553.447-1 1-1s1 .447 1 1v6.996c0 .553-.447 1-1 1z"/>
    <path fill="currentColor" d="M16.496 47.002c-.553 0-1-.447-1-1v-5.73c0-.553.447-1 1-1s1 .447 1 1v5.73c0 .553-.447 1-1 1zM30.496 47c-.553 0-1-.447-1-1v-5.729c0-.553.447-1 1-1s1 .447 1 1V46c0 .553-.447 1-1 1z"/>
    <path fill="currentColor" d="M23.496 43.002c-8.822 0-16-7.178-16-16 0-.553.447-1 1-1s1 .447 1 1c0 7.72 6.28 14 14 14s14-6.28 14-14c0-.553.447-1 1-1s1 .447 1 1c0 8.822-7.178 16-16 16z"/>
    <path fill="currentColor" d="M8.496 28.002c-.553 0-1-.447-1-1V16c0-.553.447-1 1-1s1 .447 1 1v11.002c0 .553-.447 1-1 1zM38.496 28.002c-.553 0-1-.447-1-1v-12c0-.553.447-1 1-1s1 .447 1 1v12c0 .553-.447 1-1 1z"/>
    <path fill="currentColor" d="M38.496 16.002c-.553 0-1-.447-1-1 0-3.309-2.691-6-6-6-.553 0-1-.447-1-1s.447-1 1-1c4.411 0 8 3.589 8 8 0 .553-.447 1-1 1z"/>
    <path fill="currentColor" d="M31.496 9.002c-.553 0-1-.447-1-1V3c0-.553.447-1 1-1s1 .447 1 1v5.002c0 .553-.447 1-1 1z"/>
    <path fill="currentColor" d="M31.496 4h-10c-.553 0-1-.447-1-1s.447-1 1-1h10c.553 0 1 .447 1 1s-.447 1-1 1z"/>
    <path fill="currentColor" d="M8.496 17c-.553 0-1-.447-1-1 0-7.72 6.28-14 14-14 .553 0 1 .447 1 1s-.447 1-1 1c-6.617 0-12 5.383-12 12 0 .553-.447 1-1 1zM38.496 22c-.256 0-.512-.098-.707-.293l-4-4c-.391-.391-.391-1.023 0-1.414s1.023-.391 1.414 0l4 4c.391.391.391 1.023 0 1.414-.195.195-.451.293-.707.293z"/>
    <path fill="currentColor" d="M23.496 21c-6.206 0-11.301-3.015-11.515-3.143-.473-.284-.626-.897-.343-1.371.283-.472.894-.629 1.371-.345.049.03 4.851 2.859 10.487 2.859s10.438-2.829 10.486-2.858c.478-.284 1.088-.127 1.371.345.283.474.13 1.087-.343 1.371-.213.127-5.308 3.142-11.514 3.142z"/>
    <path fill="currentColor" d="M8.496 22c-.256 0-.512-.098-.707-.293-.391-.391-.391-1.023 0-1.414l4-4c.391-.391 1.023-.391 1.414 0s.391 1.023 0 1.414l-4 4c-.195.195-.451.293-.707.293zM23.5 51.006c-6.703 0-7.925-4.566-7.974-4.761-.135-.536.19-1.079.727-1.213.534-.132 1.072.187 1.211.718.044.158.974 3.256 6.036 3.256 5.082 0 5.992-3.123 6.028-3.256.144-.528.682-.853 1.219-.71.53.138.852.672.72 1.203-.049.195-1.262 4.763-7.967 4.763zM31.506 57H15.488c-.553 0-1-.447-1-1s.447-1 1-1h16.018c.553 0 1 .447 1 1s-.447 1-1 1zM27.506 60h-8.018c-.553 0-1-.447-1-1s.447-1 1-1h8.018c.553 0 1 .447 1 1s-.447 1-1 1z"/>
    <g>
        <path fill="currentColor" d="M47.506 62c-.265 0-.52-.105-.707-.293s-.293-.441-.293-.707V29.995c0-.553.447-1 1-1h4c.552 0 .999.446 1 .998.003 1.101.899 1.996 2 1.996 1.1 0 1.995-.896 1.998-1.996.001-.552.448-.998 1-.998h4c.553 0 1 .447 1 1V61c0 .553-.447 1-1 1h-3.998c-.553 0-1-.447-1-1 0-1.104-.897-2.002-2-2.002s-2 .897-2 2c0 .552-.447 1-.999 1zm1-2h2.126c.445-1.725 2.014-3.002 3.874-3.002s3.429 1.277 3.874 3l2.124.001V30.995h-2.129c-.447 1.72-2.014 2.994-3.869 2.994-1.856 0-3.424-1.274-3.871-2.994h-2.129z"/>
    </g>
    <g>
        <path fill="currentColor" d="M58.502 41.987h-7.996c-.553 0-1-.447-1-1v-.998c0-.38.215-.727.555-.896l3.996-1.986c.281-.139.61-.139.89 0l4 1.986c.341.169.556.516.556.896v.998c-.001.553-.448 1-1.001 1zm-5.745-2h3.493l-1.748-.868zM58.5 46.987h-7.994c-.553 0-1-.447-1-1s.447-1 1-1H58.5c.553 0 1 .447 1 1s-.447 1-1 1zM58.5 50.996h-7.994c-.553 0-1-.447-1-1s.447-1 1-1H58.5c.553 0 1 .447 1 1s-.447 1-1 1zM56.506 53.996h-4.004c-.553 0-1-.447-1-1s.447-1 1-1h4.004c.553 0 1 .447 1 1s-.447 1-1 1z"/>
        <path fill="currentColor" d="M54.502 46.987c-.553 0-1-.447-1-1v-5c0-.553.447-1 1-1s1 .447 1 1v5c0 .553-.447 1-1 1zM51.5 46.987c-.553 0-1-.447-1-1v-5c0-.553.447-1 1-1s1 .447 1 1v5c0 .553-.447 1-1 1zM57.502 46.987c-.553 0-1-.447-1-1v-5c0-.553.447-1 1-1s1 .447 1 1v5c0 .553-.447 1-1 1z"/>
    </g>
</svg>
